<?xml version="1.0" standalone="no"?>
<!DOCTYPE svg PUBLIC "-//W3C//DTD SVG 20010904//EN"
 "http://www.w3.org/TR/2001/REC-SVG-20010904/DTD/svg10.dtd">
<svg version="1.0" xmlns="http://www.w3.org/2000/svg"
 width="1280.000000pt" height="1280.000000pt" viewBox="0 0 1280.000000 1280.000000"
 preserveAspectRatio="xMidYMid meet">
<metadata>
Created by potrace 1.15, written by Peter Selinger 2001-2017
</metadata>
<g transform="translate(0.000000,1280.000000) scale(0.100000,-0.100000)"
fill="#000000" stroke="none">
<path d="M9658 12781 c-66 -21 -130 -58 -172 -97 -16 -15 -1365 -1587 -2999
-3492 l-2969 -3465 -647 645 c-556 556 -654 649 -702 671 -76 35 -162 48 -244
36 -144 -20 -100 19 -1013 -893 -731 -730 -837 -838 -863 -892 -42 -84 -56
-175 -42 -260 24 -141 -1 -112 804 -919 l738 -740 -200 -240 -200 -240 -98
-32 c-244 -78 -439 -201 -627 -395 -437 -449 -544 -1071 -277 -1613 80 -162
151 -262 277 -394 323 -334 769 -503 1196 -451 314 39 605 179 844 410 196
189 320 384 399 631 l32 98 240 200 240 200 740 -738 c659 -657 747 -741 800
-766 120 -55 239 -57 365 -5 49 21 141 109 892 858 735 734 841 843 867 896
39 79 52 165 40 251 -20 141 0 118 -707 826 l-644 647 3463 2969 c1905 1633
3481 2988 3501 3011 46 51 74 104 93 179 13 49 15 241 15 1404 0 1291 -1 1350
-19 1408 -25 82 -60 138 -119 193 -58 55 -127 91 -200 107 -38 8 -439 11
-1400 10 -1275 0 -1350 -1 -1404 -18z"/>
</g>
</svg>
