<?xml version="1.0" standalone="no"?>
<!DOCTYPE svg PUBLIC "-//W3C//DTD SVG 20010904//EN"
 "http://www.w3.org/TR/2001/REC-SVG-20010904/DTD/svg10.dtd">
<svg version="1.0" xmlns="http://www.w3.org/2000/svg"
 width="1189.000000pt" height="1280.000000pt" viewBox="0 0 1189.000000 1280.000000"
 preserveAspectRatio="xMidYMid meet">
<metadata>
Created by potrace 1.15, written by Peter Selinger 2001-2017
</metadata>
<g transform="translate(0.000000,1280.000000) scale(0.100000,-0.100000)"
fill="#000000" stroke="none">
<path d="M9390 12793 c-137 -15 -320 -70 -430 -130 -133 -73 -222 -150 -350
-303 -54 -64 -1024 -1148 -3764 -4210 -776 -866 -1872 -2090 -2435 -2720 -564
-630 -1158 -1293 -1321 -1474 -162 -180 -323 -363 -357 -405 -291 -358 -322
-914 -80 -1424 242 -509 735 -910 1267 -1030 82 -18 127 -21 330 -22 226 0
239 1 345 28 131 34 300 113 398 187 67 52 96 82 344 360 71 80 419 469 774
865 354 396 696 779 759 850 63 72 1037 1161 2165 2420 1127 1260 2454 2742
2948 3295 495 553 946 1052 1002 1110 147 151 199 226 259 373 67 163 80 239
80 457 0 162 -4 211 -22 290 -106 478 -400 900 -825 1183 -336 225 -742 337
-1087 300z"/>
</g>
</svg>
